# xmcd
#
# Track frame offsets: 
#        150
#        12656
#        25169
#        40686
#        54416
#        67732
#        80524
#        94425
#        107602
#        120909
#        133541
#        145434
#        158249
#        166800
#        180845
#        193940
#        203752
#        215370
#        228089
#        238081
#        251755
#        265649
#        274395
#        286632
#        297532
#
# Disc length: 4104 seconds
#
# Revision: 2
# Processed by: cddbd v1.5.2PL0 Copyright (c) Steve Scherf et al.
# Submitted via: ExactAudioCopyFreeDBPlugin 1.0
#
DISCID=60100619
DTITLE=Various Artist - High Noon
DYEAR=2007
DGENRE=Country
TTITLE0=Tex Ritter - High Noon(Do Not Foresake Me)
TTITLE1=Rex Allen - Cowpoke
TTITLE2=Ken Maynard - Cowboy's Lament
TTITLE3=Kenny Roberts - Wagon Wheels
TTITLE4=The Tune Wranglers - El Rancho Grande
TTITLE5=Bing Crosby - Sioux City
TTITLE6=The Sons Of The Pioneers - Chant Of The Wanderer
TTITLE7=Carl T. Sprague - When The Work's All Done This Fall
TTITLE8=Roy Rogers - Along The Navajo Trail
TTITLE9=Tex Ritter - (I Got Spurs That Jingle Jangle Jingle
TTITLE10=Gene Autry - Home On The Range
TTITLE11=Johnny Bond and His Red River Valley Boys - Twighlight On The T
TTITLE11=rail
TTITLE12=Foy Willing and The Riders Of The Purple Sage - Ragtime Cowboy 
TTITLE12=Joe
TTITLE13=Patsy Montana and The Prairie Ramblers - I Want To Be A Cowboy'
TTITLE13=s Sweetheart
TTITLE14=The Sons Of The Pioneers - Empty Saddles
TTITLE15=Rex Allen - Yodelin' Crazy
TTITLE16=Roy Rogers - Yellow Rose Of Texas
TTITLE17=Eddie Dean - On The Banks Of The Sunny San Juan
TTITLE18=Tex Williams - That's What I Like About The West
TTITLE19=Wilf Carter(Montana Slim) - There's A Knot In My Lariat
TTITLE20=Bill Boyd - Going Back To My Texas Home
TTITLE21=Cass County Boys - Trail To Mexico
TTITLE22=Carson Robison and His Pioneers - I Was Born In Old Wyoming
TTITLE23=Elton Britt - Give Me A Pinto Pal
TTITLE24=Johnny Bond and His Red River Valley Boys - Oklahoma Hills
EXTD=
EXTT0=
EXTT1=
EXTT2=
EXTT3=
EXTT4=
EXTT5=
EXTT6=
EXTT7=
EXTT8=
EXTT9=
EXTT10=
EXTT11=
EXTT12=
EXTT13=
EXTT14=
EXTT15=
EXTT16=
EXTT17=
EXTT18=
EXTT19=
EXTT20=
EXTT21=
EXTT22=
EXTT23=
EXTT24=
PLAYORDER=
